<svg width="28" height="27" viewBox="0 0 28 27" fill="none" xmlns="http://www.w3.org/2000/svg">
<path d="M21.2669 21.8398H5.66767C4.7483 21.8398 3.86658 22.2023 3.21649 22.8474C2.56639 23.4925 2.20117 24.3675 2.20117 25.2798C2.20117 25.736 2.38378 26.1735 2.70883 26.496C3.03388 26.8186 3.47474 26.9998 3.93442 26.9998H23.0002C23.4599 26.9998 23.9007 26.8186 24.2258 26.496C24.5508 26.1735 24.7334 25.736 24.7334 25.2798C24.7334 24.3675 24.3682 23.4925 23.7181 22.8474C23.068 22.2023 22.1863 21.8398 21.2669 21.8398Z" fill="#FF5555"/>
<path d="M16.5623 6.95313H10.6346C9.78139 6.95305 8.95811 7.21719 8.32236 7.69499C7.6866 8.17278 7.28303 8.83067 7.1889 9.54272L5.79883 20.0515H21.3981L20.0115 9.54272C19.9173 8.83017 19.5132 8.17188 18.8767 7.69402C18.2402 7.21615 17.4161 6.95233 16.5623 6.95313Z" fill="#FF5555"/>
<path d="M14 2.71998V1V2.71998Z" fill="#FF5555"/>
<path d="M14 2.71998V1" stroke="#FF5555" stroke-width="1.5" stroke-linecap="round" stroke-linejoin="round"/>
<path d="M2.73325 11.3164H1H2.73325Z" fill="#FF5555"/>
<path d="M2.73325 11.3164H1" stroke="#FF5555" stroke-width="1.5" stroke-linecap="round" stroke-linejoin="round"/>
<path d="M2.73438 2.71875L4.46763 4.43873L2.73438 2.71875Z" fill="#FF5555"/>
<path d="M2.73438 2.71875L4.46763 4.43873" stroke="#FF5555" stroke-width="1.5" stroke-linecap="round" stroke-linejoin="round"/>
<path d="M25.2656 11.3164H26.9989H25.2656Z" fill="#FF5555"/>
<path d="M25.2656 11.3164H26.9989" stroke="#FF5555" stroke-width="1.5" stroke-linecap="round" stroke-linejoin="round"/>
<path d="M25.2645 2.71875L23.5312 4.43873L25.2645 2.71875Z" fill="#FF5555"/>
<path d="M25.2645 2.71875L23.5312 4.43873" stroke="#FF5555" stroke-width="1.5" stroke-linecap="round" stroke-linejoin="round"/>
</svg>
