<svg width="96" height="25" viewBox="0 0 96 25" fill="none" xmlns="http://www.w3.org/2000/svg">
<path d="M30.5703 7.4375V17.3906H29.251V7.4375H30.5703ZM34.1861 11.4639V17.3906H32.9146V9.99414H34.1178L34.1861 11.4639ZM33.9264 13.4121L33.3385 13.3916C33.343 12.8857 33.4091 12.4186 33.5367 11.9902C33.6643 11.5573 33.8535 11.1813 34.1041 10.8623C34.3548 10.5433 34.6669 10.2972 35.0406 10.124C35.4143 9.94629 35.8473 9.85742 36.3395 9.85742C36.6858 9.85742 37.0048 9.90755 37.2965 10.0078C37.5882 10.1035 37.8411 10.2562 38.0553 10.4658C38.2695 10.6755 38.4358 10.9443 38.5543 11.2725C38.6728 11.6006 38.732 11.9971 38.732 12.4619V17.3906H37.4674V12.5234C37.4674 12.1361 37.4013 11.8262 37.2691 11.5938C37.1415 11.3613 36.9592 11.1927 36.7223 11.0879C36.4853 10.9785 36.2073 10.9238 35.8883 10.9238C35.5146 10.9238 35.2024 10.9899 34.9518 11.1221C34.7011 11.2542 34.5006 11.4365 34.3502 11.6689C34.1998 11.9014 34.0904 12.168 34.0221 12.4688C33.9583 12.765 33.9264 13.0794 33.9264 13.4121ZM38.7184 12.7148L37.8707 12.9746C37.8753 12.569 37.9413 12.1794 38.0689 11.8057C38.2011 11.432 38.3902 11.0993 38.6363 10.8076C38.887 10.516 39.1946 10.2858 39.5592 10.1172C39.9238 9.94401 40.3408 9.85742 40.8102 9.85742C41.2066 9.85742 41.5576 9.90983 41.8629 10.0146C42.1728 10.1195 42.4326 10.2812 42.6422 10.5C42.8564 10.7142 43.0182 10.9899 43.1275 11.3271C43.2369 11.6644 43.2916 12.0654 43.2916 12.5303V17.3906H42.0201V12.5166C42.0201 12.1019 41.954 11.7806 41.8219 11.5527C41.6943 11.3203 41.512 11.1585 41.275 11.0674C41.0426 10.9717 40.7646 10.9238 40.441 10.9238C40.163 10.9238 39.9169 10.9717 39.7027 11.0674C39.4885 11.1631 39.3085 11.2952 39.1627 11.4639C39.0169 11.6279 38.9052 11.8171 38.8277 12.0312C38.7548 12.2454 38.7184 12.4733 38.7184 12.7148ZM46.6135 11.4639V17.3906H45.342V9.99414H46.5451L46.6135 11.4639ZM46.3537 13.4121L45.7658 13.3916C45.7704 12.8857 45.8365 12.4186 45.9641 11.9902C46.0917 11.5573 46.2808 11.1813 46.5314 10.8623C46.7821 10.5433 47.0943 10.2972 47.468 10.124C47.8417 9.94629 48.2746 9.85742 48.7668 9.85742C49.1132 9.85742 49.4322 9.90755 49.7238 10.0078C50.0155 10.1035 50.2684 10.2562 50.4826 10.4658C50.6968 10.6755 50.8632 10.9443 50.9816 11.2725C51.1001 11.6006 51.1594 11.9971 51.1594 12.4619V17.3906H49.8947V12.5234C49.8947 12.1361 49.8286 11.8262 49.6965 11.5938C49.5689 11.3613 49.3866 11.1927 49.1496 11.0879C48.9126 10.9785 48.6346 10.9238 48.3156 10.9238C47.9419 10.9238 47.6298 10.9899 47.3791 11.1221C47.1284 11.2542 46.9279 11.4365 46.7775 11.6689C46.6271 11.9014 46.5178 12.168 46.4494 12.4688C46.3856 12.765 46.3537 13.0794 46.3537 13.4121ZM51.1457 12.7148L50.298 12.9746C50.3026 12.569 50.3687 12.1794 50.4963 11.8057C50.6284 11.432 50.8176 11.0993 51.0637 10.8076C51.3143 10.516 51.6219 10.2858 51.9865 10.1172C52.3511 9.94401 52.7681 9.85742 53.2375 9.85742C53.634 9.85742 53.9849 9.90983 54.2902 10.0146C54.6001 10.1195 54.8599 10.2812 55.0695 10.5C55.2837 10.7142 55.4455 10.9899 55.5549 11.3271C55.6643 11.6644 55.7189 12.0654 55.7189 12.5303V17.3906H54.4475V12.5166C54.4475 12.1019 54.3814 11.7806 54.2492 11.5527C54.1216 11.3203 53.9393 11.1585 53.7023 11.0674C53.4699 10.9717 53.1919 10.9238 52.8684 10.9238C52.5904 10.9238 52.3443 10.9717 52.1301 11.0674C51.9159 11.1631 51.7359 11.2952 51.59 11.4639C51.4442 11.6279 51.3326 11.8171 51.2551 12.0312C51.1822 12.2454 51.1457 12.4733 51.1457 12.7148ZM60.8523 17.5273C60.3374 17.5273 59.8702 17.4408 59.451 17.2676C59.0363 17.0898 58.6785 16.8415 58.3777 16.5225C58.0815 16.2035 57.8536 15.8252 57.6941 15.3877C57.5346 14.9502 57.4549 14.4717 57.4549 13.9521V13.665C57.4549 13.0635 57.5438 12.528 57.7215 12.0586C57.8992 11.5846 58.1408 11.1836 58.4461 10.8555C58.7514 10.5273 59.0978 10.279 59.4852 10.1104C59.8725 9.94173 60.2736 9.85742 60.6883 9.85742C61.2169 9.85742 61.6727 9.94857 62.0555 10.1309C62.4428 10.3132 62.7596 10.5684 63.0057 10.8965C63.2518 11.2201 63.4341 11.6029 63.5525 12.0449C63.671 12.4824 63.7303 12.9609 63.7303 13.4805V14.0479H58.2068V13.0156H62.4656V12.9199C62.4474 12.5918 62.379 12.2728 62.2605 11.9629C62.1466 11.653 61.9643 11.3978 61.7137 11.1973C61.463 10.9967 61.1212 10.8965 60.6883 10.8965C60.4012 10.8965 60.1368 10.958 59.8953 11.0811C59.6538 11.1995 59.4464 11.3773 59.2732 11.6143C59.1001 11.8512 58.9656 12.1406 58.8699 12.4824C58.7742 12.8242 58.7264 13.2184 58.7264 13.665V13.9521C58.7264 14.3031 58.7742 14.6335 58.8699 14.9434C58.9702 15.2487 59.1137 15.5176 59.3006 15.75C59.492 15.9824 59.7221 16.1647 59.991 16.2969C60.2645 16.429 60.5743 16.4951 60.9207 16.4951C61.3673 16.4951 61.7456 16.404 62.0555 16.2217C62.3654 16.0394 62.6365 15.7956 62.8689 15.4902L63.6346 16.0986C63.4751 16.3402 63.2723 16.5703 63.0262 16.7891C62.7801 17.0078 62.477 17.1855 62.117 17.3223C61.7615 17.459 61.34 17.5273 60.8523 17.5273ZM70.0189 15.9551V6.89062H71.2904V17.3906H70.1283L70.0189 15.9551ZM65.0424 13.7744V13.6309C65.0424 13.0658 65.1107 12.5531 65.2475 12.0928C65.3887 11.6279 65.587 11.2292 65.8422 10.8965C66.102 10.5638 66.4096 10.3086 66.765 10.1309C67.1251 9.94857 67.5261 9.85742 67.9682 9.85742C68.433 9.85742 68.8386 9.93945 69.185 10.1035C69.5359 10.263 69.8321 10.4977 70.0736 10.8076C70.3197 11.113 70.5134 11.4821 70.6547 11.915C70.796 12.348 70.8939 12.8379 70.9486 13.3848V14.0137C70.8985 14.556 70.8005 15.0436 70.6547 15.4766C70.5134 15.9095 70.3197 16.2786 70.0736 16.584C69.8321 16.8893 69.5359 17.124 69.185 17.2881C68.834 17.4476 68.4239 17.5273 67.9545 17.5273C67.5215 17.5273 67.1251 17.4339 66.765 17.2471C66.4096 17.0602 66.102 16.7982 65.8422 16.4609C65.587 16.1237 65.3887 15.7272 65.2475 15.2715C65.1107 14.8112 65.0424 14.3122 65.0424 13.7744ZM66.3139 13.6309V13.7744C66.3139 14.1436 66.3503 14.4899 66.4232 14.8135C66.5007 15.137 66.6192 15.4219 66.7787 15.668C66.9382 15.9141 67.141 16.1077 67.3871 16.249C67.6332 16.3857 67.9271 16.4541 68.2689 16.4541C68.6882 16.4541 69.0323 16.3652 69.3012 16.1875C69.5746 16.0098 69.7934 15.7751 69.9574 15.4834C70.1215 15.1917 70.2491 14.875 70.3402 14.5332V12.8857C70.2855 12.6351 70.2058 12.3936 70.101 12.1611C70.0007 11.9242 69.8686 11.7145 69.7045 11.5322C69.545 11.3454 69.3467 11.1973 69.1098 11.0879C68.8773 10.9785 68.6016 10.9238 68.2826 10.9238C67.9363 10.9238 67.6378 10.9967 67.3871 11.1426C67.141 11.2839 66.9382 11.4798 66.7787 11.7305C66.6192 11.9766 66.5007 12.2637 66.4232 12.5918C66.3503 12.9154 66.3139 13.2617 66.3139 13.6309ZM74.7832 9.99414V17.3906H73.5117V9.99414H74.7832ZM73.416 8.03223C73.416 7.82715 73.4775 7.65397 73.6006 7.5127C73.7282 7.37142 73.915 7.30078 74.1611 7.30078C74.4027 7.30078 74.5872 7.37142 74.7148 7.5127C74.847 7.65397 74.9131 7.82715 74.9131 8.03223C74.9131 8.22819 74.847 8.39681 74.7148 8.53809C74.5872 8.6748 74.4027 8.74316 74.1611 8.74316C73.915 8.74316 73.7282 8.6748 73.6006 8.53809C73.4775 8.39681 73.416 8.22819 73.416 8.03223ZM81.3248 16.126V12.3184C81.3248 12.0267 81.2656 11.7738 81.1471 11.5596C81.0331 11.3408 80.86 11.1722 80.6275 11.0537C80.3951 10.9352 80.108 10.876 79.7662 10.876C79.4472 10.876 79.1669 10.9307 78.9254 11.04C78.6884 11.1494 78.5016 11.293 78.3648 11.4707C78.2327 11.6484 78.1666 11.8398 78.1666 12.0449H76.902C76.902 11.7806 76.9703 11.5186 77.107 11.2588C77.2438 10.999 77.4397 10.7643 77.6949 10.5547C77.9547 10.3405 78.2646 10.1719 78.6246 10.0488C78.9892 9.92122 79.3948 9.85742 79.8414 9.85742C80.3792 9.85742 80.8531 9.94857 81.2633 10.1309C81.678 10.3132 82.0016 10.5889 82.234 10.958C82.471 11.3226 82.5895 11.7806 82.5895 12.332V15.7773C82.5895 16.0234 82.61 16.2855 82.651 16.5635C82.6966 16.8415 82.7626 17.0807 82.8492 17.2812V17.3906H81.5299C81.4661 17.2448 81.416 17.0511 81.3795 16.8096C81.343 16.5635 81.3248 16.3356 81.3248 16.126ZM81.5436 12.9062L81.5572 13.7949H80.2789C79.9189 13.7949 79.5976 13.8245 79.315 13.8838C79.0325 13.9385 78.7955 14.0228 78.6041 14.1367C78.4127 14.2507 78.2669 14.3942 78.1666 14.5674C78.0663 14.736 78.0162 14.9342 78.0162 15.1621C78.0162 15.3945 78.0686 15.6064 78.1734 15.7979C78.2783 15.9893 78.4355 16.1419 78.6451 16.2559C78.8593 16.3652 79.1214 16.4199 79.4313 16.4199C79.8186 16.4199 80.1604 16.3379 80.4566 16.1738C80.7529 16.0098 80.9876 15.8092 81.1607 15.5723C81.3385 15.3353 81.4342 15.1051 81.4479 14.8818L81.9879 15.4902C81.956 15.6816 81.8694 15.8936 81.7281 16.126C81.5869 16.3584 81.3977 16.5817 81.1607 16.7959C80.9283 17.0055 80.6503 17.181 80.3268 17.3223C80.0077 17.459 79.6477 17.5273 79.2467 17.5273C78.7454 17.5273 78.3056 17.4294 77.9273 17.2334C77.5536 17.0374 77.262 16.7754 77.0523 16.4473C76.8473 16.1146 76.7447 15.7432 76.7447 15.333C76.7447 14.9365 76.8222 14.5879 76.9771 14.2871C77.1321 13.9818 77.3554 13.7288 77.6471 13.5283C77.9387 13.3232 78.2896 13.1683 78.6998 13.0635C79.11 12.9587 79.568 12.9062 80.0738 12.9062H81.5436ZM87.8254 9.99414V10.9648H83.8264V9.99414H87.8254ZM85.1799 8.19629H86.4445V15.5586C86.4445 15.8092 86.4833 15.9984 86.5607 16.126C86.6382 16.2536 86.7385 16.3379 86.8615 16.3789C86.9846 16.4199 87.1167 16.4404 87.258 16.4404C87.3628 16.4404 87.4722 16.4313 87.5861 16.4131C87.7046 16.3903 87.7935 16.3721 87.8527 16.3584L87.8596 17.3906C87.7593 17.4225 87.6271 17.4521 87.4631 17.4795C87.3036 17.5114 87.1099 17.5273 86.882 17.5273C86.5721 17.5273 86.2873 17.4658 86.0275 17.3428C85.7678 17.2197 85.5604 17.0146 85.4055 16.7275C85.2551 16.4359 85.1799 16.0439 85.1799 15.5518V8.19629ZM92.5281 17.5273C92.0132 17.5273 91.546 17.4408 91.1268 17.2676C90.712 17.0898 90.3543 16.8415 90.0535 16.5225C89.7573 16.2035 89.5294 15.8252 89.3699 15.3877C89.2104 14.9502 89.1307 14.4717 89.1307 13.9521V13.665C89.1307 13.0635 89.2195 12.528 89.3973 12.0586C89.575 11.5846 89.8165 11.1836 90.1219 10.8555C90.4272 10.5273 90.7736 10.279 91.1609 10.1104C91.5483 9.94173 91.9493 9.85742 92.3641 9.85742C92.8927 9.85742 93.3484 9.94857 93.7313 10.1309C94.1186 10.3132 94.4354 10.5684 94.6814 10.8965C94.9275 11.2201 95.1098 11.6029 95.2283 12.0449C95.3468 12.4824 95.4061 12.9609 95.4061 13.4805V14.0479H89.8826V13.0156H94.1414V12.9199C94.1232 12.5918 94.0548 12.2728 93.9363 11.9629C93.8224 11.653 93.6401 11.3978 93.3895 11.1973C93.1388 10.9967 92.797 10.8965 92.3641 10.8965C92.077 10.8965 91.8126 10.958 91.5711 11.0811C91.3296 11.1995 91.1222 11.3773 90.949 11.6143C90.7758 11.8512 90.6414 12.1406 90.5457 12.4824C90.45 12.8242 90.4021 13.2184 90.4021 13.665V13.9521C90.4021 14.3031 90.45 14.6335 90.5457 14.9434C90.646 15.2487 90.7895 15.5176 90.9764 15.75C91.1678 15.9824 91.3979 16.1647 91.6668 16.2969C91.9402 16.429 92.2501 16.4951 92.5965 16.4951C93.0431 16.4951 93.4214 16.404 93.7313 16.2217C94.0411 16.0394 94.3123 15.7956 94.5447 15.4902L95.3104 16.0986C95.1508 16.3402 94.948 16.5703 94.702 16.7891C94.4559 17.0078 94.1528 17.1855 93.7928 17.3223C93.4373 17.459 93.0158 17.5273 92.5281 17.5273Z" fill="black"/>
<rect y="2.39062" width="20" height="20" rx="2" fill="#EC4626"/>
</svg>
