<svg width="66" height="22" viewBox="0 0 66 22" fill="none" xmlns="http://www.w3.org/2000/svg">
<rect width="66" height="22" rx="11" fill="#ED4E2B"/>
<path d="M20.1426 6.46875V15H19.0293V6.46875H20.1426ZM22.8848 6.46875V7.39453H16.293V6.46875H22.8848ZM24.625 9.65625V15H23.541V8.66016H24.5957L24.625 9.65625ZM26.6055 8.625L26.5996 9.63281C26.5098 9.61328 26.4238 9.60156 26.3418 9.59766C26.2637 9.58984 26.1738 9.58594 26.0723 9.58594C25.8223 9.58594 25.6016 9.625 25.4102 9.70312C25.2188 9.78125 25.0566 9.89062 24.9238 10.0312C24.791 10.1719 24.6855 10.3398 24.6074 10.5352C24.5332 10.7266 24.4844 10.9375 24.4609 11.168L24.1562 11.3438C24.1562 10.9609 24.1934 10.6016 24.2676 10.2656C24.3457 9.92969 24.4648 9.63281 24.625 9.375C24.7852 9.11328 24.9883 8.91016 25.2344 8.76562C25.4844 8.61719 25.7812 8.54297 26.125 8.54297C26.2031 8.54297 26.293 8.55273 26.3945 8.57227C26.4961 8.58789 26.5664 8.60547 26.6055 8.625ZM31.1113 13.916V10.6523C31.1113 10.4023 31.0605 10.1855 30.959 10.002C30.8613 9.81445 30.7129 9.66992 30.5137 9.56836C30.3145 9.4668 30.0684 9.41602 29.7754 9.41602C29.502 9.41602 29.2617 9.46289 29.0547 9.55664C28.8516 9.65039 28.6914 9.77344 28.5742 9.92578C28.4609 10.0781 28.4043 10.2422 28.4043 10.418H27.3203C27.3203 10.1914 27.3789 9.9668 27.4961 9.74414C27.6133 9.52148 27.7812 9.32031 28 9.14062C28.2227 8.95703 28.4883 8.8125 28.7969 8.70703C29.1094 8.59766 29.457 8.54297 29.8398 8.54297C30.3008 8.54297 30.707 8.62109 31.0586 8.77734C31.4141 8.93359 31.6914 9.16992 31.8906 9.48633C32.0938 9.79883 32.1953 10.1914 32.1953 10.6641V13.6172C32.1953 13.8281 32.2129 14.0527 32.248 14.291C32.2871 14.5293 32.3438 14.7344 32.418 14.9062V15H31.2871C31.2324 14.875 31.1895 14.709 31.1582 14.502C31.127 14.291 31.1113 14.0957 31.1113 13.916ZM31.2988 11.1562L31.3105 11.918H30.2148C29.9062 11.918 29.6309 11.9434 29.3887 11.9941C29.1465 12.041 28.9434 12.1133 28.7793 12.2109C28.6152 12.3086 28.4902 12.4316 28.4043 12.5801C28.3184 12.7246 28.2754 12.8945 28.2754 13.0898C28.2754 13.2891 28.3203 13.4707 28.4102 13.6348C28.5 13.7988 28.6348 13.9297 28.8145 14.0273C28.998 14.1211 29.2227 14.168 29.4883 14.168C29.8203 14.168 30.1133 14.0977 30.3672 13.957C30.6211 13.8164 30.8223 13.6445 30.9707 13.4414C31.123 13.2383 31.2051 13.041 31.2168 12.8496L31.6797 13.3711C31.6523 13.5352 31.5781 13.7168 31.457 13.916C31.3359 14.1152 31.1738 14.3066 30.9707 14.4902C30.7715 14.6699 30.5332 14.8203 30.2559 14.9414C29.9824 15.0586 29.6738 15.1172 29.3301 15.1172C28.9004 15.1172 28.5234 15.0332 28.1992 14.8652C27.8789 14.6973 27.6289 14.4727 27.4492 14.1914C27.2734 13.9062 27.1855 13.5879 27.1855 13.2363C27.1855 12.8965 27.252 12.5977 27.3848 12.3398C27.5176 12.0781 27.709 11.8613 27.959 11.6895C28.209 11.5137 28.5098 11.3809 28.8613 11.291C29.2129 11.2012 29.6055 11.1562 30.0391 11.1562H31.2988ZM35.5176 15H34.4336V7.99219C34.4336 7.53516 34.5156 7.15039 34.6797 6.83789C34.8477 6.52148 35.0879 6.2832 35.4004 6.12305C35.7129 5.95898 36.084 5.87695 36.5137 5.87695C36.6387 5.87695 36.7637 5.88477 36.8887 5.90039C37.0176 5.91602 37.1426 5.93945 37.2637 5.9707L37.2051 6.85547C37.123 6.83594 37.0293 6.82227 36.9238 6.81445C36.8223 6.80664 36.7207 6.80273 36.6191 6.80273C36.3887 6.80273 36.1895 6.84961 36.0215 6.94336C35.8574 7.0332 35.7324 7.16602 35.6465 7.3418C35.5605 7.51758 35.5176 7.73438 35.5176 7.99219V15ZM36.9238 8.66016V9.49219H33.4316V8.66016H36.9238ZM38.9453 15H37.8613V8.10938C37.8613 7.62891 37.9531 7.22266 38.1367 6.89062C38.3242 6.55859 38.5918 6.30664 38.9395 6.13477C39.2871 5.96289 39.6992 5.87695 40.1758 5.87695C40.4609 5.87695 40.7383 5.91211 41.0078 5.98242C41.2773 6.04883 41.5547 6.13281 41.8398 6.23438L41.6523 7.14844C41.4766 7.07812 41.2695 7.01172 41.0312 6.94922C40.793 6.88281 40.5352 6.84961 40.2578 6.84961C39.793 6.84961 39.457 6.95508 39.25 7.16602C39.0469 7.37305 38.9453 7.6875 38.9453 8.10938V15ZM40.2402 8.66016V9.49219H36.8594V8.66016H40.2402ZM42.373 8.66016V15H41.2891V8.66016H42.373ZM46.6797 14.2266C46.9375 14.2266 47.1758 14.1738 47.3945 14.0684C47.6133 13.9629 47.793 13.8184 47.9336 13.6348C48.0742 13.4473 48.1543 13.2344 48.1738 12.9961H49.2051C49.1855 13.3711 49.0586 13.7207 48.8242 14.0449C48.5938 14.3652 48.291 14.625 47.916 14.8242C47.541 15.0195 47.1289 15.1172 46.6797 15.1172C46.2031 15.1172 45.7871 15.0332 45.4316 14.8652C45.0801 14.6973 44.7871 14.4668 44.5527 14.1738C44.3223 13.8809 44.1484 13.5449 44.0312 13.166C43.918 12.7832 43.8613 12.3789 43.8613 11.9531V11.707C43.8613 11.2812 43.918 10.8789 44.0312 10.5C44.1484 10.1172 44.3223 9.7793 44.5527 9.48633C44.7871 9.19336 45.0801 8.96289 45.4316 8.79492C45.7871 8.62695 46.2031 8.54297 46.6797 8.54297C47.1758 8.54297 47.6094 8.64453 47.9805 8.84766C48.3516 9.04688 48.6426 9.32031 48.8535 9.66797C49.0684 10.0117 49.1855 10.4023 49.2051 10.8398H48.1738C48.1543 10.5781 48.0801 10.3418 47.9512 10.1309C47.8262 9.91992 47.6543 9.75195 47.4355 9.62695C47.2207 9.49805 46.9688 9.43359 46.6797 9.43359C46.3477 9.43359 46.0684 9.5 45.8418 9.63281C45.6191 9.76172 45.4414 9.9375 45.3086 10.1602C45.1797 10.3789 45.0859 10.623 45.0273 10.8926C44.9727 11.1582 44.9453 11.4297 44.9453 11.707V11.9531C44.9453 12.2305 44.9727 12.5039 45.0273 12.7734C45.082 13.043 45.1738 13.2871 45.3027 13.5059C45.4355 13.7246 45.6133 13.9004 45.8359 14.0332C46.0625 14.1621 46.3438 14.2266 46.6797 14.2266Z" fill="white"/>
</svg>
