<svg width="64" height="22" viewBox="0 0 64 22" fill="none" xmlns="http://www.w3.org/2000/svg">
<rect width="64" height="22" rx="11" fill="#00A4AE"/>
<path d="M19.2988 15H17.5176L17.5293 14.0801H19.2988C19.9082 14.0801 20.416 13.9531 20.8223 13.6992C21.2285 13.4414 21.5332 13.082 21.7363 12.6211C21.9434 12.1562 22.0469 11.6133 22.0469 10.9922V10.4707C22.0469 9.98242 21.9883 9.54883 21.8711 9.16992C21.7539 8.78711 21.582 8.46484 21.3555 8.20312C21.1289 7.9375 20.8516 7.73633 20.5234 7.59961C20.1992 7.46289 19.8262 7.39453 19.4043 7.39453H17.4824V6.46875H19.4043C19.9629 6.46875 20.4727 6.5625 20.9336 6.75C21.3945 6.93359 21.791 7.20117 22.123 7.55273C22.459 7.90039 22.7168 8.32227 22.8965 8.81836C23.0762 9.31055 23.166 9.86523 23.166 10.4824V10.9922C23.166 11.6094 23.0762 12.166 22.8965 12.6621C22.7168 13.1543 22.457 13.5742 22.1172 13.9219C21.7812 14.2695 21.375 14.5371 20.8984 14.7246C20.4258 14.9082 19.8926 15 19.2988 15ZM18.1211 6.46875V15H16.9902V6.46875H18.1211ZM25.7852 9.65625V15H24.7012V8.66016H25.7559L25.7852 9.65625ZM27.7656 8.625L27.7598 9.63281C27.6699 9.61328 27.584 9.60156 27.502 9.59766C27.4238 9.58984 27.334 9.58594 27.2324 9.58594C26.9824 9.58594 26.7617 9.625 26.5703 9.70312C26.3789 9.78125 26.2168 9.89062 26.084 10.0312C25.9512 10.1719 25.8457 10.3398 25.7676 10.5352C25.6934 10.7266 25.6445 10.9375 25.6211 11.168L25.3164 11.3438C25.3164 10.9609 25.3535 10.6016 25.4277 10.2656C25.5059 9.92969 25.625 9.63281 25.7852 9.375C25.9453 9.11328 26.1484 8.91016 26.3945 8.76562C26.6445 8.61719 26.9414 8.54297 27.2852 8.54297C27.3633 8.54297 27.4531 8.55273 27.5547 8.57227C27.6562 8.58789 27.7266 8.60547 27.7656 8.625ZM28.3633 11.9004V11.7656C28.3633 11.3086 28.4297 10.8848 28.5625 10.4941C28.6953 10.0996 28.8867 9.75781 29.1367 9.46875C29.3867 9.17578 29.6895 8.94922 30.0449 8.78906C30.4004 8.625 30.7988 8.54297 31.2402 8.54297C31.6855 8.54297 32.0859 8.625 32.4414 8.78906C32.8008 8.94922 33.1055 9.17578 33.3555 9.46875C33.6094 9.75781 33.8027 10.0996 33.9355 10.4941C34.0684 10.8848 34.1348 11.3086 34.1348 11.7656V11.9004C34.1348 12.3574 34.0684 12.7812 33.9355 13.1719C33.8027 13.5625 33.6094 13.9043 33.3555 14.1973C33.1055 14.4863 32.8027 14.7129 32.4473 14.877C32.0957 15.0371 31.6973 15.1172 31.252 15.1172C30.8066 15.1172 30.4062 15.0371 30.0508 14.877C29.6953 14.7129 29.3906 14.4863 29.1367 14.1973C28.8867 13.9043 28.6953 13.5625 28.5625 13.1719C28.4297 12.7812 28.3633 12.3574 28.3633 11.9004ZM29.4473 11.7656V11.9004C29.4473 12.2168 29.4844 12.5156 29.5586 12.7969C29.6328 13.0742 29.7441 13.3203 29.8926 13.5352C30.0449 13.75 30.2344 13.9199 30.4609 14.0449C30.6875 14.166 30.9512 14.2266 31.252 14.2266C31.5488 14.2266 31.8086 14.166 32.0312 14.0449C32.2578 13.9199 32.4453 13.75 32.5938 13.5352C32.7422 13.3203 32.8535 13.0742 32.9277 12.7969C33.0059 12.5156 33.0449 12.2168 33.0449 11.9004V11.7656C33.0449 11.4531 33.0059 11.1582 32.9277 10.8809C32.8535 10.5996 32.7402 10.3516 32.5879 10.1367C32.4395 9.91797 32.252 9.74609 32.0254 9.62109C31.8027 9.49609 31.541 9.43359 31.2402 9.43359C30.9434 9.43359 30.6816 9.49609 30.4551 9.62109C30.2324 9.74609 30.0449 9.91797 29.8926 10.1367C29.7441 10.3516 29.6328 10.5996 29.5586 10.8809C29.4844 11.1582 29.4473 11.4531 29.4473 11.7656ZM36.5781 10.0137V15H35.4941V8.66016H36.5195L36.5781 10.0137ZM36.3203 11.5898L35.8691 11.5723C35.873 11.1387 35.9375 10.7383 36.0625 10.3711C36.1875 10 36.3633 9.67773 36.5898 9.4043C36.8164 9.13086 37.0859 8.91992 37.3984 8.77148C37.7148 8.61914 38.0645 8.54297 38.4473 8.54297C38.7598 8.54297 39.041 8.58594 39.291 8.67188C39.541 8.75391 39.7539 8.88672 39.9297 9.07031C40.1094 9.25391 40.2461 9.49219 40.3398 9.78516C40.4336 10.0742 40.4805 10.4277 40.4805 10.8457V15H39.3906V10.834C39.3906 10.502 39.3418 10.2363 39.2441 10.0371C39.1465 9.83398 39.0039 9.6875 38.8164 9.59766C38.6289 9.50391 38.3984 9.45703 38.125 9.45703C37.8555 9.45703 37.6094 9.51367 37.3867 9.62695C37.168 9.74023 36.9785 9.89648 36.8184 10.0957C36.6621 10.2949 36.5391 10.5234 36.4492 10.7812C36.3633 11.0352 36.3203 11.3047 36.3203 11.5898ZM44.7578 15.1172C44.3164 15.1172 43.916 15.043 43.5566 14.8945C43.2012 14.7422 42.8945 14.5293 42.6367 14.2559C42.3828 13.9824 42.1875 13.6582 42.0508 13.2832C41.9141 12.9082 41.8457 12.498 41.8457 12.0527V11.8066C41.8457 11.291 41.9219 10.832 42.0742 10.4297C42.2266 10.0234 42.4336 9.67969 42.6953 9.39844C42.957 9.11719 43.2539 8.9043 43.5859 8.75977C43.918 8.61523 44.2617 8.54297 44.6172 8.54297C45.0703 8.54297 45.4609 8.62109 45.7891 8.77734C46.1211 8.93359 46.3926 9.15234 46.6035 9.43359C46.8145 9.71094 46.9707 10.0391 47.0723 10.418C47.1738 10.793 47.2246 11.2031 47.2246 11.6484V12.1348H42.4902V11.25H46.1406V11.168C46.125 10.8867 46.0664 10.6133 45.9648 10.3477C45.8672 10.082 45.7109 9.86328 45.4961 9.69141C45.2812 9.51953 44.9883 9.43359 44.6172 9.43359C44.3711 9.43359 44.1445 9.48633 43.9375 9.5918C43.7305 9.69336 43.5527 9.8457 43.4043 10.0488C43.2559 10.252 43.1406 10.5 43.0586 10.793C42.9766 11.0859 42.9355 11.4238 42.9355 11.8066V12.0527C42.9355 12.3535 42.9766 12.6367 43.0586 12.9023C43.1445 13.1641 43.2676 13.3945 43.4277 13.5938C43.5918 13.793 43.7891 13.9492 44.0195 14.0625C44.2539 14.1758 44.5195 14.2324 44.8164 14.2324C45.1992 14.2324 45.5234 14.1543 45.7891 13.998C46.0547 13.8418 46.2871 13.6328 46.4863 13.3711L47.1426 13.8926C47.0059 14.0996 46.832 14.2969 46.6211 14.4844C46.4102 14.6719 46.1504 14.8242 45.8418 14.9414C45.5371 15.0586 45.1758 15.1172 44.7578 15.1172Z" fill="white"/>
</svg>
