<svg width="59" height="22" viewBox="0 0 59 22" fill="none" xmlns="http://www.w3.org/2000/svg">
<rect width="59" height="22" rx="11" fill="#FFB800"/>
<path d="M20.0312 11.0098H17.8691L17.8574 10.1016H19.8203C20.1445 10.1016 20.4277 10.0469 20.6699 9.9375C20.9121 9.82812 21.0996 9.67188 21.2324 9.46875C21.3691 9.26172 21.4375 9.01562 21.4375 8.73047C21.4375 8.41797 21.377 8.16406 21.2559 7.96875C21.1387 7.76953 20.957 7.625 20.7109 7.53516C20.4688 7.44141 20.1602 7.39453 19.7852 7.39453H18.1211V15H16.9902V6.46875H19.7852C20.2227 6.46875 20.6133 6.51367 20.957 6.60352C21.3008 6.68945 21.5918 6.82617 21.8301 7.01367C22.0723 7.19727 22.2559 7.43164 22.3809 7.7168C22.5059 8.00195 22.5684 8.34375 22.5684 8.74219C22.5684 9.09375 22.4785 9.41211 22.2988 9.69727C22.1191 9.97852 21.8691 10.209 21.5488 10.3887C21.2324 10.5684 20.8613 10.6836 20.4355 10.7344L20.0312 11.0098ZM19.9785 15H17.4238L18.0625 14.0801H19.9785C20.3379 14.0801 20.6426 14.0176 20.8926 13.8926C21.1465 13.7676 21.3398 13.5918 21.4727 13.3652C21.6055 13.1348 21.6719 12.8633 21.6719 12.5508C21.6719 12.2344 21.6152 11.9609 21.502 11.7305C21.3887 11.5 21.2109 11.3223 20.9688 11.1973C20.7266 11.0723 20.4141 11.0098 20.0312 11.0098H18.4199L18.4316 10.1016H20.6348L20.875 10.4297C21.2852 10.4648 21.6328 10.582 21.918 10.7812C22.2031 10.9766 22.4199 11.2266 22.5684 11.5312C22.7207 11.8359 22.7969 12.1719 22.7969 12.5391C22.7969 13.0703 22.6797 13.5195 22.4453 13.8867C22.2148 14.25 21.8887 14.5273 21.4668 14.7188C21.0449 14.9062 20.5488 15 19.9785 15ZM24.0156 11.9004V11.7656C24.0156 11.3086 24.082 10.8848 24.2148 10.4941C24.3477 10.0996 24.5391 9.75781 24.7891 9.46875C25.0391 9.17578 25.3418 8.94922 25.6973 8.78906C26.0527 8.625 26.4512 8.54297 26.8926 8.54297C27.3379 8.54297 27.7383 8.625 28.0938 8.78906C28.4531 8.94922 28.7578 9.17578 29.0078 9.46875C29.2617 9.75781 29.4551 10.0996 29.5879 10.4941C29.7207 10.8848 29.7871 11.3086 29.7871 11.7656V11.9004C29.7871 12.3574 29.7207 12.7812 29.5879 13.1719C29.4551 13.5625 29.2617 13.9043 29.0078 14.1973C28.7578 14.4863 28.4551 14.7129 28.0996 14.877C27.748 15.0371 27.3496 15.1172 26.9043 15.1172C26.459 15.1172 26.0586 15.0371 25.7031 14.877C25.3477 14.7129 25.043 14.4863 24.7891 14.1973C24.5391 13.9043 24.3477 13.5625 24.2148 13.1719C24.082 12.7812 24.0156 12.3574 24.0156 11.9004ZM25.0996 11.7656V11.9004C25.0996 12.2168 25.1367 12.5156 25.2109 12.7969C25.2852 13.0742 25.3965 13.3203 25.5449 13.5352C25.6973 13.75 25.8867 13.9199 26.1133 14.0449C26.3398 14.166 26.6035 14.2266 26.9043 14.2266C27.2012 14.2266 27.4609 14.166 27.6836 14.0449C27.9102 13.9199 28.0977 13.75 28.2461 13.5352C28.3945 13.3203 28.5059 13.0742 28.5801 12.7969C28.6582 12.5156 28.6973 12.2168 28.6973 11.9004V11.7656C28.6973 11.4531 28.6582 11.1582 28.5801 10.8809C28.5059 10.5996 28.3926 10.3516 28.2402 10.1367C28.0918 9.91797 27.9043 9.74609 27.6777 9.62109C27.4551 9.49609 27.1934 9.43359 26.8926 9.43359C26.5957 9.43359 26.334 9.49609 26.1074 9.62109C25.8848 9.74609 25.6973 9.91797 25.5449 10.1367C25.3965 10.3516 25.2852 10.5996 25.2109 10.8809C25.1367 11.1582 25.0996 11.4531 25.0996 11.7656ZM35.1426 13.7695V6H36.2324V15H35.2363L35.1426 13.7695ZM30.877 11.9004V11.7773C30.877 11.293 30.9355 10.8535 31.0527 10.459C31.1738 10.0605 31.3438 9.71875 31.5625 9.43359C31.7852 9.14844 32.0488 8.92969 32.3535 8.77734C32.6621 8.62109 33.0059 8.54297 33.3848 8.54297C33.7832 8.54297 34.1309 8.61328 34.4277 8.75391C34.7285 8.89062 34.9824 9.0918 35.1895 9.35742C35.4004 9.61914 35.5664 9.93555 35.6875 10.3066C35.8086 10.6777 35.8926 11.0977 35.9395 11.5664V12.1055C35.8965 12.5703 35.8125 12.9883 35.6875 13.3594C35.5664 13.7305 35.4004 14.0469 35.1895 14.3086C34.9824 14.5703 34.7285 14.7715 34.4277 14.9121C34.127 15.0488 33.7754 15.1172 33.373 15.1172C33.002 15.1172 32.6621 15.0371 32.3535 14.877C32.0488 14.7168 31.7852 14.4922 31.5625 14.2031C31.3438 13.9141 31.1738 13.5742 31.0527 13.1836C30.9355 12.7891 30.877 12.3613 30.877 11.9004ZM31.9668 11.7773V11.9004C31.9668 12.2168 31.998 12.5137 32.0605 12.791C32.127 13.0684 32.2285 13.3125 32.3652 13.5234C32.502 13.7344 32.6758 13.9004 32.8867 14.0215C33.0977 14.1387 33.3496 14.1973 33.6426 14.1973C34.002 14.1973 34.2969 14.1211 34.5273 13.9688C34.7617 13.8164 34.9492 13.6152 35.0898 13.3652C35.2305 13.1152 35.3398 12.8438 35.418 12.5508V11.1387C35.3711 10.9238 35.3027 10.7168 35.2129 10.5176C35.127 10.3145 35.0137 10.1348 34.873 9.97852C34.7363 9.81836 34.5664 9.69141 34.3633 9.59766C34.1641 9.50391 33.9277 9.45703 33.6543 9.45703C33.3574 9.45703 33.1016 9.51953 32.8867 9.64453C32.6758 9.76562 32.502 9.93359 32.3652 10.1484C32.2285 10.3594 32.127 10.6055 32.0605 10.8867C31.998 11.1641 31.9668 11.4609 31.9668 11.7773ZM39.7012 14.3438L41.4648 8.66016H42.625L40.082 15.9785C40.0234 16.1348 39.9453 16.3027 39.8477 16.4824C39.7539 16.666 39.6328 16.8398 39.4844 17.0039C39.3359 17.168 39.1562 17.3008 38.9453 17.4023C38.7383 17.5078 38.4902 17.5605 38.2012 17.5605C38.1152 17.5605 38.0059 17.5488 37.873 17.5254C37.7402 17.502 37.6465 17.4824 37.5918 17.4668L37.5859 16.5879C37.6172 16.5918 37.666 16.5957 37.7324 16.5996C37.8027 16.6074 37.8516 16.6113 37.8789 16.6113C38.125 16.6113 38.334 16.5781 38.5059 16.5117C38.6777 16.4492 38.8223 16.3418 38.9395 16.1895C39.0605 16.041 39.1641 15.8359 39.25 15.5742L39.7012 14.3438ZM38.4062 8.66016L40.0527 13.582L40.334 14.7246L39.5547 15.123L37.2227 8.66016H38.4062Z" fill="white"/>
</svg>
