<svg width="75" height="22" viewBox="0 0 75 22" fill="none" xmlns="http://www.w3.org/2000/svg">
<rect width="75" height="22" rx="11" fill="#074061"/>
<path d="M21.5371 12.8438C21.5371 12.6445 21.5059 12.4688 21.4434 12.3164C21.3848 12.1602 21.2793 12.0195 21.127 11.8945C20.9785 11.7695 20.7715 11.6504 20.5059 11.5371C20.2441 11.4238 19.9121 11.3086 19.5098 11.1914C19.0879 11.0664 18.707 10.9277 18.3672 10.7754C18.0273 10.6191 17.7363 10.4414 17.4941 10.2422C17.252 10.043 17.0664 9.81445 16.9375 9.55664C16.8086 9.29883 16.7441 9.00391 16.7441 8.67188C16.7441 8.33984 16.8125 8.0332 16.9492 7.75195C17.0859 7.4707 17.2812 7.22656 17.5352 7.01953C17.793 6.80859 18.0996 6.64453 18.4551 6.52734C18.8105 6.41016 19.207 6.35156 19.6445 6.35156C20.2852 6.35156 20.8281 6.47461 21.2734 6.7207C21.7227 6.96289 22.0645 7.28125 22.2988 7.67578C22.5332 8.06641 22.6504 8.48438 22.6504 8.92969H21.5254C21.5254 8.60938 21.457 8.32617 21.3203 8.08008C21.1836 7.83008 20.9766 7.63477 20.6992 7.49414C20.4219 7.34961 20.0703 7.27734 19.6445 7.27734C19.2422 7.27734 18.9102 7.33789 18.6484 7.45898C18.3867 7.58008 18.1914 7.74414 18.0625 7.95117C17.9375 8.1582 17.875 8.39453 17.875 8.66016C17.875 8.83984 17.9121 9.00391 17.9863 9.15234C18.0645 9.29688 18.1836 9.43164 18.3438 9.55664C18.5078 9.68164 18.7148 9.79688 18.9648 9.90234C19.2188 10.0078 19.5215 10.1094 19.873 10.207C20.3574 10.3438 20.7754 10.4961 21.127 10.6641C21.4785 10.832 21.7676 11.0215 21.9941 11.2324C22.2246 11.4395 22.3945 11.6758 22.5039 11.9414C22.6172 12.2031 22.6738 12.5 22.6738 12.832C22.6738 13.1797 22.6035 13.4941 22.4629 13.7754C22.3223 14.0566 22.1211 14.2969 21.8594 14.4961C21.5977 14.6953 21.2832 14.8496 20.916 14.959C20.5527 15.0645 20.1465 15.1172 19.6973 15.1172C19.3027 15.1172 18.9141 15.0625 18.5312 14.9531C18.1523 14.8438 17.8066 14.6797 17.4941 14.4609C17.1855 14.2422 16.9375 13.9727 16.75 13.6523C16.5664 13.3281 16.4746 12.9531 16.4746 12.5273H17.5996C17.5996 12.8203 17.6562 13.0723 17.7695 13.2832C17.8828 13.4902 18.0371 13.6621 18.2324 13.7988C18.4316 13.9355 18.6562 14.0371 18.9062 14.1035C19.1602 14.166 19.4238 14.1973 19.6973 14.1973C20.0918 14.1973 20.4258 14.1426 20.6992 14.0332C20.9727 13.9238 21.1797 13.7676 21.3203 13.5645C21.4648 13.3613 21.5371 13.1211 21.5371 12.8438ZM26.582 15.1172C26.1406 15.1172 25.7402 15.043 25.3809 14.8945C25.0254 14.7422 24.7188 14.5293 24.4609 14.2559C24.207 13.9824 24.0117 13.6582 23.875 13.2832C23.7383 12.9082 23.6699 12.498 23.6699 12.0527V11.8066C23.6699 11.291 23.7461 10.832 23.8984 10.4297C24.0508 10.0234 24.2578 9.67969 24.5195 9.39844C24.7812 9.11719 25.0781 8.9043 25.4102 8.75977C25.7422 8.61523 26.0859 8.54297 26.4414 8.54297C26.8945 8.54297 27.2852 8.62109 27.6133 8.77734C27.9453 8.93359 28.2168 9.15234 28.4277 9.43359C28.6387 9.71094 28.7949 10.0391 28.8965 10.418C28.998 10.793 29.0488 11.2031 29.0488 11.6484V12.1348H24.3145V11.25H27.9648V11.168C27.9492 10.8867 27.8906 10.6133 27.7891 10.3477C27.6914 10.082 27.5352 9.86328 27.3203 9.69141C27.1055 9.51953 26.8125 9.43359 26.4414 9.43359C26.1953 9.43359 25.9688 9.48633 25.7617 9.5918C25.5547 9.69336 25.377 9.8457 25.2285 10.0488C25.0801 10.252 24.9648 10.5 24.8828 10.793C24.8008 11.0859 24.7598 11.4238 24.7598 11.8066V12.0527C24.7598 12.3535 24.8008 12.6367 24.8828 12.9023C24.9688 13.1641 25.0918 13.3945 25.252 13.5938C25.416 13.793 25.6133 13.9492 25.8438 14.0625C26.0781 14.1758 26.3438 14.2324 26.6406 14.2324C27.0234 14.2324 27.3477 14.1543 27.6133 13.998C27.8789 13.8418 28.1113 13.6328 28.3105 13.3711L28.9668 13.8926C28.8301 14.0996 28.6562 14.2969 28.4453 14.4844C28.2344 14.6719 27.9746 14.8242 27.666 14.9414C27.3613 15.0586 27 15.1172 26.582 15.1172ZM32.8516 14.2266C33.1094 14.2266 33.3477 14.1738 33.5664 14.0684C33.7852 13.9629 33.9648 13.8184 34.1055 13.6348C34.2461 13.4473 34.3262 13.2344 34.3457 12.9961H35.377C35.3574 13.3711 35.2305 13.7207 34.9961 14.0449C34.7656 14.3652 34.4629 14.625 34.0879 14.8242C33.7129 15.0195 33.3008 15.1172 32.8516 15.1172C32.375 15.1172 31.959 15.0332 31.6035 14.8652C31.252 14.6973 30.959 14.4668 30.7246 14.1738C30.4941 13.8809 30.3203 13.5449 30.2031 13.166C30.0898 12.7832 30.0332 12.3789 30.0332 11.9531V11.707C30.0332 11.2812 30.0898 10.8789 30.2031 10.5C30.3203 10.1172 30.4941 9.7793 30.7246 9.48633C30.959 9.19336 31.252 8.96289 31.6035 8.79492C31.959 8.62695 32.375 8.54297 32.8516 8.54297C33.3477 8.54297 33.7812 8.64453 34.1523 8.84766C34.5234 9.04688 34.8145 9.32031 35.0254 9.66797C35.2402 10.0117 35.3574 10.4023 35.377 10.8398H34.3457C34.3262 10.5781 34.252 10.3418 34.123 10.1309C33.998 9.91992 33.8262 9.75195 33.6074 9.62695C33.3926 9.49805 33.1406 9.43359 32.8516 9.43359C32.5195 9.43359 32.2402 9.5 32.0137 9.63281C31.791 9.76172 31.6133 9.9375 31.4805 10.1602C31.3516 10.3789 31.2578 10.623 31.1992 10.8926C31.1445 11.1582 31.1172 11.4297 31.1172 11.707V11.9531C31.1172 12.2305 31.1445 12.5039 31.1992 12.7734C31.2539 13.043 31.3457 13.2871 31.4746 13.5059C31.6074 13.7246 31.7852 13.9004 32.0078 14.0332C32.2344 14.1621 32.5156 14.2266 32.8516 14.2266ZM40.4746 13.5352V8.66016H41.5645V15H40.5273L40.4746 13.5352ZM40.6797 12.1992L41.1309 12.1875C41.1309 12.6094 41.0859 13 40.9961 13.3594C40.9102 13.7148 40.7695 14.0234 40.5742 14.2852C40.3789 14.5469 40.123 14.752 39.8066 14.9004C39.4902 15.0449 39.1055 15.1172 38.6523 15.1172C38.3438 15.1172 38.0605 15.0723 37.8027 14.9824C37.5488 14.8926 37.3301 14.7539 37.1465 14.5664C36.9629 14.3789 36.8203 14.1348 36.7188 13.834C36.6211 13.5332 36.5723 13.1719 36.5723 12.75V8.66016H37.6562V12.7617C37.6562 13.0469 37.6875 13.2832 37.75 13.4707C37.8164 13.6543 37.9043 13.8008 38.0137 13.9102C38.127 14.0156 38.252 14.0898 38.3887 14.1328C38.5293 14.1758 38.6738 14.1973 38.8223 14.1973C39.2832 14.1973 39.6484 14.1094 39.918 13.9336C40.1875 13.7539 40.3809 13.5137 40.498 13.2129C40.6191 12.9082 40.6797 12.5703 40.6797 12.1992ZM44.3008 9.65625V15H43.2168V8.66016H44.2715L44.3008 9.65625ZM46.2812 8.625L46.2754 9.63281C46.1855 9.61328 46.0996 9.60156 46.0176 9.59766C45.9395 9.58984 45.8496 9.58594 45.748 9.58594C45.498 9.58594 45.2773 9.625 45.0859 9.70312C44.8945 9.78125 44.7324 9.89062 44.5996 10.0312C44.4668 10.1719 44.3613 10.3398 44.2832 10.5352C44.209 10.7266 44.1602 10.9375 44.1367 11.168L43.832 11.3438C43.832 10.9609 43.8691 10.6016 43.9434 10.2656C44.0215 9.92969 44.1406 9.63281 44.3008 9.375C44.4609 9.11328 44.6641 8.91016 44.9102 8.76562C45.1602 8.61719 45.457 8.54297 45.8008 8.54297C45.8789 8.54297 45.9688 8.55273 46.0703 8.57227C46.1719 8.58789 46.2422 8.60547 46.2812 8.625ZM48.4609 8.66016V15H47.3711V8.66016H48.4609ZM47.2891 6.97852C47.2891 6.80273 47.3418 6.6543 47.4473 6.5332C47.5566 6.41211 47.7168 6.35156 47.9277 6.35156C48.1348 6.35156 48.293 6.41211 48.4023 6.5332C48.5156 6.6543 48.5723 6.80273 48.5723 6.97852C48.5723 7.14648 48.5156 7.29102 48.4023 7.41211C48.293 7.5293 48.1348 7.58789 47.9277 7.58789C47.7168 7.58789 47.5566 7.5293 47.4473 7.41211C47.3418 7.29102 47.2891 7.14648 47.2891 6.97852ZM52.8555 8.66016V9.49219H49.4277V8.66016H52.8555ZM50.5879 7.11914H51.6719V13.4297C51.6719 13.6445 51.7051 13.8066 51.7715 13.916C51.8379 14.0254 51.9238 14.0977 52.0293 14.1328C52.1348 14.168 52.248 14.1855 52.3691 14.1855C52.459 14.1855 52.5527 14.1777 52.6504 14.1621C52.752 14.1426 52.8281 14.127 52.8789 14.1152L52.8848 15C52.7988 15.0273 52.6855 15.0527 52.5449 15.0762C52.4082 15.1035 52.2422 15.1172 52.0469 15.1172C51.7812 15.1172 51.5371 15.0645 51.3145 14.959C51.0918 14.8535 50.9141 14.6777 50.7812 14.4316C50.6523 14.1816 50.5879 13.8457 50.5879 13.4238V7.11914ZM55.9082 14.3438L57.6719 8.66016H58.832L56.2891 15.9785C56.2305 16.1348 56.1523 16.3027 56.0547 16.4824C55.9609 16.666 55.8398 16.8398 55.6914 17.0039C55.543 17.168 55.3633 17.3008 55.1523 17.4023C54.9453 17.5078 54.6973 17.5605 54.4082 17.5605C54.3223 17.5605 54.2129 17.5488 54.0801 17.5254C53.9473 17.502 53.8535 17.4824 53.7988 17.4668L53.793 16.5879C53.8242 16.5918 53.873 16.5957 53.9395 16.5996C54.0098 16.6074 54.0586 16.6113 54.0859 16.6113C54.332 16.6113 54.541 16.5781 54.7129 16.5117C54.8848 16.4492 55.0293 16.3418 55.1465 16.1895C55.2676 16.041 55.3711 15.8359 55.457 15.5742L55.9082 14.3438ZM54.6133 8.66016L56.2598 13.582L56.541 14.7246L55.7617 15.123L53.4297 8.66016H54.6133Z" fill="white"/>
</svg>
