<svg width="55" height="25" viewBox="0 0 55 25" fill="none" xmlns="http://www.w3.org/2000/svg">
<path d="M35.1914 16.3174V17.3906H30.2148V16.3174H35.1914ZM30.4746 7.4375V17.3906H29.1553V7.4375H30.4746ZM36.3258 13.7744V13.6172C36.3258 13.084 36.4033 12.5895 36.5582 12.1338C36.7132 11.6735 36.9365 11.2747 37.2281 10.9375C37.5198 10.5957 37.873 10.3314 38.2877 10.1445C38.7024 9.95312 39.1673 9.85742 39.6822 9.85742C40.2018 9.85742 40.6689 9.95312 41.0836 10.1445C41.5029 10.3314 41.8583 10.5957 42.15 10.9375C42.4462 11.2747 42.6718 11.6735 42.8268 12.1338C42.9817 12.5895 43.0592 13.084 43.0592 13.6172V13.7744C43.0592 14.3076 42.9817 14.8021 42.8268 15.2578C42.6718 15.7135 42.4462 16.1123 42.15 16.4541C41.8583 16.7913 41.5051 17.0557 41.0904 17.2471C40.6803 17.4339 40.2154 17.5273 39.6959 17.5273C39.1764 17.5273 38.7092 17.4339 38.2945 17.2471C37.8798 17.0557 37.5243 16.7913 37.2281 16.4541C36.9365 16.1123 36.7132 15.7135 36.5582 15.2578C36.4033 14.8021 36.3258 14.3076 36.3258 13.7744ZM37.5904 13.6172V13.7744C37.5904 14.1436 37.6337 14.4922 37.7203 14.8203C37.8069 15.1439 37.9368 15.431 38.11 15.6816C38.2877 15.9323 38.5087 16.1305 38.773 16.2764C39.0374 16.4176 39.345 16.4883 39.6959 16.4883C40.0423 16.4883 40.3453 16.4176 40.6051 16.2764C40.8694 16.1305 41.0882 15.9323 41.2613 15.6816C41.4345 15.431 41.5644 15.1439 41.651 14.8203C41.7421 14.4922 41.7877 14.1436 41.7877 13.7744V13.6172C41.7877 13.2526 41.7421 12.9085 41.651 12.585C41.5644 12.2568 41.4322 11.9674 41.2545 11.7168C41.0813 11.4616 40.8626 11.2611 40.5982 11.1152C40.3385 10.9694 40.0331 10.8965 39.6822 10.8965C39.3359 10.8965 39.0305 10.9694 38.7662 11.1152C38.5064 11.2611 38.2877 11.4616 38.11 11.7168C37.9368 11.9674 37.8069 12.2568 37.7203 12.585C37.6337 12.9085 37.5904 13.2526 37.5904 13.6172ZM46.6682 16.0781L48.5686 9.99414H49.4025L49.2385 11.2041L47.3039 17.3906H46.4904L46.6682 16.0781ZM45.3898 9.99414L47.01 16.1465L47.1262 17.3906H46.2717L44.1252 9.99414H45.3898ZM51.2209 16.0986L52.7658 9.99414H54.0236L51.8771 17.3906H51.0295L51.2209 16.0986ZM49.5871 9.99414L51.4465 15.9756L51.6584 17.3906H50.8518L48.8625 11.1904L48.6984 9.99414H49.5871Z" fill="white"/>
<rect y="2.39062" width="20" height="20" rx="2" fill="#ECCC26"/>
</svg>
