<svg width="23" height="22" viewBox="0 0 23 22" fill="none" xmlns="http://www.w3.org/2000/svg">
<path d="M21.2719 5.54263L12.1553 0.829395C11.9598 0.728454 11.743 0.675781 11.523 0.675781C11.303 0.675781 11.0862 0.728454 10.8908 0.829395L1.77417 5.54263C1.68463 5.589 1.60956 5.65909 1.55716 5.74524C1.50476 5.83138 1.47705 5.93027 1.47705 6.0311C1.47705 6.13193 1.50476 6.23083 1.55716 6.31697C1.60956 6.40312 1.68463 6.4732 1.77417 6.51957L10.8908 11.2355C11.0862 11.3364 11.303 11.3891 11.523 11.3891C11.743 11.3891 11.9598 11.3364 12.1553 11.2355L21.2719 6.52493C21.3614 6.47856 21.4365 6.40848 21.4889 6.32233C21.5413 6.23618 21.569 6.13729 21.569 6.03646C21.569 5.93563 21.5413 5.83674 21.4889 5.75059C21.4365 5.66445 21.3614 5.59436 21.2719 5.54799V5.54263Z" stroke="white" stroke-width="1.28732" stroke-linecap="round" stroke-linejoin="round"/>
<path d="M5.36134 8.37109L1.77417 10.2267C1.68463 10.2731 1.60956 10.3432 1.55716 10.4293C1.50476 10.5155 1.47705 10.6144 1.47705 10.7152C1.47705 10.816 1.50476 10.9149 1.55716 11.0011C1.60956 11.0872 1.68463 11.1573 1.77417 11.2037L10.8908 15.9196C11.0862 16.0205 11.303 16.0732 11.523 16.0732C11.743 16.0732 11.9598 16.0205 12.1553 15.9196L21.2719 11.2037C21.3614 11.1573 21.4365 11.0872 21.4889 11.0011C21.5413 10.9149 21.569 10.816 21.569 10.7152C21.569 10.6144 21.5413 10.5155 21.4889 10.4293C21.4365 10.3432 21.3614 10.2731 21.2719 10.2267L17.6847 8.37109" stroke="white" stroke-width="1.28732" stroke-linecap="round" stroke-linejoin="round"/>
<path d="M5.36134 13.0625L1.77417 14.9155C1.68463 14.9618 1.60956 15.0319 1.55716 15.1181C1.50476 15.2042 1.47705 15.3031 1.47705 15.4039C1.47705 15.5048 1.50476 15.6037 1.55716 15.6898C1.60956 15.776 1.68463 15.846 1.77417 15.8924L10.8908 20.6083C11.0862 20.7093 11.303 20.7619 11.523 20.7619C11.743 20.7619 11.9598 20.7093 12.1553 20.6083L21.2719 15.8978C21.3614 15.8514 21.4365 15.7813 21.4889 15.6952C21.5413 15.609 21.569 15.5101 21.569 15.4093C21.569 15.3085 21.5413 15.2096 21.4889 15.1234C21.4365 15.0373 21.3614 14.9672 21.2719 14.9208L17.6847 13.0625" stroke="white" stroke-width="1.28732" stroke-linecap="round" stroke-linejoin="round"/>
</svg>
