<svg width="51" height="51" viewBox="0 0 51 51" fill="none" xmlns="http://www.w3.org/2000/svg">
<g filter="url(#filter0_d_759_48829)">
<path d="M3 7.14928C3 4.30541 5.30541 2 8.14929 2H40.7614C43.6053 2 45.9107 4.30541 45.9107 7.14929V39.7614C45.9107 42.6053 43.6053 44.9107 40.7614 44.9107H8.14928C5.30541 44.9107 3 42.6053 3 39.7614V7.14928Z" fill="#FF6060"/>
<g clip-path="url(#clip0_759_48829)">
<path d="M21.6498 16.8281H27.3883C27.8956 16.8281 28.3821 17.0297 28.7409 17.3884C29.0996 17.7471 29.3011 18.2336 29.3011 18.741V28.3051C29.3011 28.8125 29.0996 29.299 28.7409 29.6577C28.3821 30.0164 27.8956 30.218 27.3883 30.218H21.6498C21.1424 30.218 20.6559 30.0164 20.2972 29.6577C19.9385 29.299 19.7369 28.8125 19.7369 28.3051V18.741C19.7369 18.2336 19.9385 17.7471 20.2972 17.3884C20.6559 17.0297 21.1424 16.8281 21.6498 16.8281ZM29.3011 19.2192H30.2575C30.7648 19.2192 31.2514 19.4207 31.6101 19.7794C31.9688 20.1382 32.1704 20.6247 32.1704 21.132V25.9141C32.1704 26.4214 31.9688 26.9079 31.6101 27.2667C31.2514 27.6254 30.7648 27.8269 30.2575 27.8269H29.3011V19.2192ZM19.7369 19.2192H18.7805C18.2732 19.2192 17.7867 19.4207 17.4279 19.7794C17.0692 20.1382 16.8677 20.6247 16.8677 21.132V25.9141C16.8677 26.4214 17.0692 26.9079 17.4279 27.2667C17.7867 27.6254 18.2732 27.8269 18.7805 27.8269H19.7369V19.2192Z" stroke="#FF6060" stroke-width="1.2015" stroke-linecap="round" stroke-linejoin="round"/>
<path fill-rule="evenodd" clip-rule="evenodd" d="M21.8799 24.7247C22.6722 24.7247 23.3145 25.367 23.3145 26.1593V31.9552C23.3145 32.6208 23.854 33.1603 24.5196 33.1603C25.1851 33.1603 25.7247 32.6208 25.7247 31.9552V26.1593C25.7247 25.367 26.367 24.7247 27.1593 24.7247H32.9552C33.6208 24.7247 34.1603 24.1851 34.1603 23.5196C34.1603 22.854 33.6208 22.3145 32.9552 22.3145H27.1593C26.367 22.3145 25.7247 21.6722 25.7247 20.8799V15.084C25.7247 14.4184 25.1851 13.8789 24.5196 13.8789C23.854 13.8789 23.3145 14.4184 23.3145 15.084V20.8799C23.3145 21.6722 22.6722 22.3145 21.8799 22.3145H16.084C15.4184 22.3145 14.8789 22.854 14.8789 23.5196C14.8789 24.1851 15.4184 24.7247 16.084 24.7247H21.8799Z" fill="white"/>
</g>
</g>
<defs>
<filter id="filter0_d_759_48829" x="0.425357" y="0.283571" width="49.7764" height="49.7759" filterUnits="userSpaceOnUse" color-interpolation-filters="sRGB">
<feFlood flood-opacity="0" result="BackgroundImageFix"/>
<feColorMatrix in="SourceAlpha" type="matrix" values="0 0 0 0 0 0 0 0 0 0 0 0 0 0 0 0 0 0 127 0" result="hardAlpha"/>
<feOffset dx="0.858214" dy="1.71643"/>
<feGaussianBlur stdDeviation="1.71643"/>
<feComposite in2="hardAlpha" operator="out"/>
<feColorMatrix type="matrix" values="0 0 0 0 0.5625 0 0 0 0 0.5625 0 0 0 0 0.5625 0 0 0 0.2 0"/>
<feBlend mode="normal" in2="BackgroundImageFix" result="effect1_dropShadow_759_48829"/>
<feBlend mode="normal" in="SourceGraphic" in2="effect1_dropShadow_759_48829" result="shape"/>
</filter>
<clipPath id="clip0_759_48829">
<rect width="20.0848" height="20.0848" fill="white" transform="translate(14.4771 13.4766)"/>
</clipPath>
</defs>
</svg>
