<svg width="51" height="51" viewBox="0 0 51 51" fill="none" xmlns="http://www.w3.org/2000/svg">
<g filter="url(#filter0_d_759_48841)">
<rect x="3" y="2.55859" width="42.9107" height="42.9107" rx="5.14929" fill="#4F4F4F"/>
<path d="M28.0962 16.4289C27.7993 16.3102 27.4681 16.3102 27.1711 16.4289L21.8682 18.5506C21.5713 18.6693 21.2401 18.6693 20.9432 18.5506L16.0322 16.5858C15.9375 16.5479 15.8348 16.5338 15.7333 16.5448C15.6319 16.5558 15.5346 16.5916 15.4502 16.649C15.3658 16.7064 15.2968 16.7837 15.2493 16.8741C15.2018 16.9644 15.1772 17.065 15.1777 17.1671V29.1024C15.1777 29.3514 15.2523 29.5947 15.3919 29.8009C15.5314 30.007 15.7296 30.1667 15.9608 30.2591L20.9432 32.2521C21.2401 32.3708 21.5713 32.3708 21.8682 32.2521L27.1711 30.1304C27.4681 30.0117 27.7993 30.0117 28.0962 30.1304L33.0072 32.0918C33.1019 32.1298 33.2045 32.1439 33.306 32.1329C33.4075 32.1219 33.5047 32.0861 33.5891 32.0287C33.6735 31.9712 33.7425 31.894 33.7901 31.8036C33.8376 31.7133 33.8622 31.6126 33.8616 31.5105V19.5786C33.8617 19.3296 33.7871 19.0863 33.6475 18.8801C33.5079 18.6739 33.3098 18.5143 33.0786 18.4219L28.0962 16.4289Z" stroke="white" stroke-width="1.29116" stroke-linecap="round" stroke-linejoin="round"/>
<path d="M21.4058 18.6445V32.346" stroke="white" stroke-width="1.29116" stroke-linecap="round" stroke-linejoin="round"/>
<path d="M27.6333 16.3398V30.0414" stroke="white" stroke-width="1.29116" stroke-linecap="round" stroke-linejoin="round"/>
</g>
<defs>
<filter id="filter0_d_759_48841" x="0.425357" y="0.842165" width="49.7764" height="49.7759" filterUnits="userSpaceOnUse" color-interpolation-filters="sRGB">
<feFlood flood-opacity="0" result="BackgroundImageFix"/>
<feColorMatrix in="SourceAlpha" type="matrix" values="0 0 0 0 0 0 0 0 0 0 0 0 0 0 0 0 0 0 127 0" result="hardAlpha"/>
<feOffset dx="0.858214" dy="1.71643"/>
<feGaussianBlur stdDeviation="1.71643"/>
<feComposite in2="hardAlpha" operator="out"/>
<feColorMatrix type="matrix" values="0 0 0 0 0.5625 0 0 0 0 0.5625 0 0 0 0 0.5625 0 0 0 0.2 0"/>
<feBlend mode="normal" in2="BackgroundImageFix" result="effect1_dropShadow_759_48841"/>
<feBlend mode="normal" in="SourceGraphic" in2="effect1_dropShadow_759_48841" result="shape"/>
</filter>
</defs>
</svg>
