<svg width="51" height="50" viewBox="0 0 51 50" fill="none" xmlns="http://www.w3.org/2000/svg">
<g filter="url(#filter0_d_759_48836)">
<path d="M3 6.92662C3 4.08275 5.30541 1.77734 8.14929 1.77734H40.7614C43.6053 1.77734 45.9107 4.08276 45.9107 6.92663V39.5388C45.9107 42.3826 43.6053 44.6881 40.7614 44.6881H8.14928C5.30541 44.6881 3 42.3826 3 39.5388V6.92662Z" fill="#4F4F4F"/>
</g>
<path d="M20.7535 13.6875H28.2853C28.9512 13.6875 29.5898 13.9682 30.0606 14.4679C30.5314 14.9675 30.7959 15.6452 30.7959 16.3518V29.6733C30.7959 30.38 30.5314 31.0576 30.0606 31.5573C29.5898 32.0569 28.9512 32.3376 28.2853 32.3376H20.7535C20.0877 32.3376 19.4491 32.0569 18.9783 31.5573C18.5075 31.0576 18.2429 30.38 18.2429 29.6733V16.3518C18.2429 15.6452 18.5075 14.9675 18.9783 14.4679C19.4491 13.9682 20.0877 13.6875 20.7535 13.6875ZM30.7959 17.0179H32.0512C32.7171 17.0179 33.3557 17.2986 33.8265 17.7982C34.2973 18.2979 34.5618 18.9756 34.5618 19.6822V26.343C34.5618 27.0496 34.2973 27.7273 33.8265 28.2269C33.3557 28.7266 32.7171 29.0073 32.0512 29.0073H30.7959V17.0179ZM18.2429 17.0179H16.9876C16.3218 17.0179 15.6832 17.2986 15.2124 17.7982C14.7416 18.2979 14.4771 18.9756 14.4771 19.6822V26.343C14.4771 27.0496 14.7416 27.7273 15.2124 28.2269C15.6832 28.7266 16.3218 29.0073 16.9876 29.0073H18.2429V17.0179Z" stroke="white" stroke-width="1.2015" stroke-linecap="round" stroke-linejoin="round"/>
<defs>
<filter id="filter0_d_759_48836" x="0.425357" y="0.0609152" width="49.7764" height="49.7759" filterUnits="userSpaceOnUse" color-interpolation-filters="sRGB">
<feFlood flood-opacity="0" result="BackgroundImageFix"/>
<feColorMatrix in="SourceAlpha" type="matrix" values="0 0 0 0 0 0 0 0 0 0 0 0 0 0 0 0 0 0 127 0" result="hardAlpha"/>
<feOffset dx="0.858214" dy="1.71643"/>
<feGaussianBlur stdDeviation="1.71643"/>
<feComposite in2="hardAlpha" operator="out"/>
<feColorMatrix type="matrix" values="0 0 0 0 0.5625 0 0 0 0 0.5625 0 0 0 0 0.5625 0 0 0 0.2 0"/>
<feBlend mode="normal" in2="BackgroundImageFix" result="effect1_dropShadow_759_48836"/>
<feBlend mode="normal" in="SourceGraphic" in2="effect1_dropShadow_759_48836" result="shape"/>
</filter>
</defs>
</svg>
