<svg width="26" height="26" viewBox="0 0 26 26" fill="none" xmlns="http://www.w3.org/2000/svg">
<path d="M17.0507 3.35088C16.7144 3.21637 16.3392 3.21637 16.0029 3.35088L9.99629 5.75408C9.65997 5.88858 9.2848 5.88858 8.94848 5.75408L3.38584 3.52865C3.27851 3.48563 3.16226 3.46966 3.0473 3.48214C2.93235 3.49461 2.82223 3.53515 2.72662 3.60019C2.63102 3.66522 2.55287 3.75276 2.49905 3.8551C2.44523 3.95744 2.41739 4.07143 2.41798 4.18706V17.7061C2.41793 17.9882 2.50241 18.2637 2.66051 18.4973C2.81862 18.7308 3.04309 18.9116 3.30495 19.0164L8.94848 21.2738C9.2848 21.4083 9.65997 21.4083 9.99629 21.2738L16.0029 18.8706C16.3392 18.7361 16.7144 18.7361 17.0507 18.8706L22.6133 21.0922C22.7207 21.1352 22.8369 21.1512 22.9519 21.1387C23.0668 21.1263 23.1769 21.0857 23.2725 21.0207C23.3681 20.9557 23.4463 20.8681 23.5001 20.7658C23.5539 20.6634 23.5818 20.5494 23.5812 20.4338V6.91853C23.5812 6.63649 23.4968 6.36092 23.3387 6.12737C23.1806 5.89382 22.9561 5.71302 22.6942 5.60829L17.0507 3.35088Z" stroke="#FAFAFA" stroke-width="1.5" stroke-linecap="round" stroke-linejoin="round"/>
<path d="M9.47266 5.85547V21.3752" stroke="#FAFAFA" stroke-width="1.5" stroke-linecap="round" stroke-linejoin="round"/>
<path d="M16.5273 3.25V18.7697" stroke="#FAFAFA" stroke-width="1.5" stroke-linecap="round" stroke-linejoin="round"/>
</svg>
