<svg width="232" height="33" viewBox="0 0 232 33" fill="none" xmlns="http://www.w3.org/2000/svg">
<rect width="232" height="32" transform="translate(0 0.390625)" fill="#767676"/>
<path d="M37.5723 11.4375H38.8506L42.1113 19.5518L45.3652 11.4375H46.6504L42.6035 21.3906H41.6055L37.5723 11.4375ZM37.1553 11.4375H38.2832L38.4678 17.5078V21.3906H37.1553V11.4375ZM45.9326 11.4375H47.0605V21.3906H45.748V17.5078L45.9326 11.4375ZM49.0016 17.7744V17.6172C49.0016 17.084 49.079 16.5895 49.234 16.1338C49.3889 15.6735 49.6122 15.2747 49.9039 14.9375C50.1956 14.5957 50.5488 14.3314 50.9635 14.1445C51.3782 13.9531 51.843 13.8574 52.358 13.8574C52.8775 13.8574 53.3447 13.9531 53.7594 14.1445C54.1786 14.3314 54.5341 14.5957 54.8258 14.9375C55.122 15.2747 55.3476 15.6735 55.5025 16.1338C55.6575 16.5895 55.735 17.084 55.735 17.6172V17.7744C55.735 18.3076 55.6575 18.8021 55.5025 19.2578C55.3476 19.7135 55.122 20.1123 54.8258 20.4541C54.5341 20.7913 54.1809 21.0557 53.7662 21.2471C53.3561 21.4339 52.8912 21.5273 52.3717 21.5273C51.8521 21.5273 51.385 21.4339 50.9703 21.2471C50.5556 21.0557 50.2001 20.7913 49.9039 20.4541C49.6122 20.1123 49.3889 19.7135 49.234 19.2578C49.079 18.8021 49.0016 18.3076 49.0016 17.7744ZM50.2662 17.6172V17.7744C50.2662 18.1436 50.3095 18.4922 50.3961 18.8203C50.4827 19.1439 50.6126 19.431 50.7857 19.6816C50.9635 19.9323 51.1845 20.1305 51.4488 20.2764C51.7132 20.4176 52.0208 20.4883 52.3717 20.4883C52.718 20.4883 53.0211 20.4176 53.2809 20.2764C53.5452 20.1305 53.7639 19.9323 53.9371 19.6816C54.1103 19.431 54.2402 19.1439 54.3268 18.8203C54.4179 18.4922 54.4635 18.1436 54.4635 17.7744V17.6172C54.4635 17.2526 54.4179 16.9085 54.3268 16.585C54.2402 16.2568 54.108 15.9674 53.9303 15.7168C53.7571 15.4616 53.5383 15.2611 53.274 15.1152C53.0143 14.9694 52.7089 14.8965 52.358 14.8965C52.0117 14.8965 51.7063 14.9694 51.442 15.1152C51.1822 15.2611 50.9635 15.4616 50.7857 15.7168C50.6126 15.9674 50.4827 16.2568 50.3961 16.585C50.3095 16.9085 50.2662 17.2526 50.2662 17.6172ZM62.133 19.9551V10.8906H63.4045V21.3906H62.2424L62.133 19.9551ZM57.1564 17.7744V17.6309C57.1564 17.0658 57.2248 16.5531 57.3615 16.0928C57.5028 15.6279 57.701 15.2292 57.9562 14.8965C58.216 14.5638 58.5236 14.3086 58.8791 14.1309C59.2391 13.9486 59.6402 13.8574 60.0822 13.8574C60.5471 13.8574 60.9527 13.9395 61.299 14.1035C61.6499 14.263 61.9462 14.4977 62.1877 14.8076C62.4338 15.113 62.6275 15.4821 62.7687 15.915C62.91 16.348 63.008 16.8379 63.0627 17.3848V18.0137C63.0126 18.556 62.9146 19.0436 62.7687 19.4766C62.6275 19.9095 62.4338 20.2786 62.1877 20.584C61.9462 20.8893 61.6499 21.124 61.299 21.2881C60.9481 21.4476 60.538 21.5273 60.0686 21.5273C59.6356 21.5273 59.2391 21.4339 58.8791 21.2471C58.5236 21.0602 58.216 20.7982 57.9562 20.4609C57.701 20.1237 57.5028 19.7272 57.3615 19.2715C57.2248 18.8112 57.1564 18.3122 57.1564 17.7744ZM58.4279 17.6309V17.7744C58.4279 18.1436 58.4644 18.4899 58.5373 18.8135C58.6148 19.137 58.7333 19.4219 58.8928 19.668C59.0523 19.9141 59.2551 20.1077 59.5012 20.249C59.7473 20.3857 60.0412 20.4541 60.383 20.4541C60.8023 20.4541 61.1464 20.3652 61.4152 20.1875C61.6887 20.0098 61.9074 19.7751 62.0715 19.4834C62.2355 19.1917 62.3632 18.875 62.4543 18.5332V16.8857C62.3996 16.6351 62.3199 16.3936 62.215 16.1611C62.1148 15.9242 61.9826 15.7145 61.8186 15.5322C61.659 15.3454 61.4608 15.1973 61.2238 15.0879C60.9914 14.9785 60.7157 14.9238 60.3967 14.9238C60.0503 14.9238 59.7518 14.9967 59.5012 15.1426C59.2551 15.2839 59.0523 15.4798 58.8928 15.7305C58.7333 15.9766 58.6148 16.2637 58.5373 16.5918C58.4644 16.9154 58.4279 17.2617 58.4279 17.6309ZM68.5926 21.5273C68.0776 21.5273 67.6105 21.4408 67.1912 21.2676C66.7765 21.0898 66.4188 20.8415 66.118 20.5225C65.8217 20.2035 65.5939 19.8252 65.4344 19.3877C65.2749 18.9502 65.1951 18.4717 65.1951 17.9521V17.665C65.1951 17.0635 65.284 16.528 65.4617 16.0586C65.6395 15.5846 65.881 15.1836 66.1863 14.8555C66.4917 14.5273 66.838 14.279 67.2254 14.1104C67.6128 13.9417 68.0138 13.8574 68.4285 13.8574C68.9572 13.8574 69.4129 13.9486 69.7957 14.1309C70.1831 14.3132 70.4998 14.5684 70.7459 14.8965C70.992 15.2201 71.1743 15.6029 71.2928 16.0449C71.4113 16.4824 71.4705 16.9609 71.4705 17.4805V18.0479H65.9471V17.0156H70.2059V16.9199C70.1876 16.5918 70.1193 16.2728 70.0008 15.9629C69.8868 15.653 69.7046 15.3978 69.4539 15.1973C69.2033 14.9967 68.8615 14.8965 68.4285 14.8965C68.1414 14.8965 67.8771 14.958 67.6355 15.0811C67.394 15.1995 67.1867 15.3773 67.0135 15.6143C66.8403 15.8512 66.7059 16.1406 66.6102 16.4824C66.5145 16.8242 66.4666 17.2184 66.4666 17.665V17.9521C66.4666 18.3031 66.5145 18.6335 66.6102 18.9434C66.7104 19.2487 66.854 19.5176 67.0408 19.75C67.2322 19.9824 67.4624 20.1647 67.7313 20.2969C68.0047 20.429 68.3146 20.4951 68.6609 20.4951C69.1076 20.4951 69.4858 20.404 69.7957 20.2217C70.1056 20.0394 70.3768 19.7956 70.6092 19.4902L71.3748 20.0986C71.2153 20.3402 71.0125 20.5703 70.7664 20.7891C70.5203 21.0078 70.2173 21.1855 69.8572 21.3223C69.5018 21.459 69.0802 21.5273 68.5926 21.5273ZM74.3617 15.1562V21.3906H73.0971V13.9941H74.3275L74.3617 15.1562ZM76.6723 13.9531L76.6654 15.1289C76.5606 15.1061 76.4604 15.0924 76.3646 15.0879C76.2735 15.0788 76.1687 15.0742 76.0502 15.0742C75.7585 15.0742 75.501 15.1198 75.2777 15.2109C75.0544 15.3021 74.8653 15.4297 74.7104 15.5938C74.5554 15.7578 74.4324 15.9538 74.3412 16.1816C74.2546 16.4049 74.1977 16.651 74.1703 16.9199L73.8148 17.125C73.8148 16.6784 73.8581 16.2591 73.9447 15.8672C74.0359 15.4753 74.1749 15.1289 74.3617 14.8281C74.5486 14.5228 74.7855 14.2858 75.0727 14.1172C75.3643 13.944 75.7107 13.8574 76.1117 13.8574C76.2029 13.8574 76.3077 13.8688 76.4262 13.8916C76.5447 13.9098 76.6267 13.9303 76.6723 13.9531ZM82.0791 20.126V16.3184C82.0791 16.0267 82.0199 15.7738 81.9014 15.5596C81.7874 15.3408 81.6143 15.1722 81.3818 15.0537C81.1494 14.9352 80.8623 14.876 80.5205 14.876C80.2015 14.876 79.9212 14.9307 79.6797 15.04C79.4427 15.1494 79.2559 15.293 79.1191 15.4707C78.987 15.6484 78.9209 15.8398 78.9209 16.0449H77.6562C77.6562 15.7806 77.7246 15.5186 77.8613 15.2588C77.998 14.999 78.194 14.7643 78.4492 14.5547C78.709 14.3405 79.0189 14.1719 79.3789 14.0488C79.7435 13.9212 80.1491 13.8574 80.5957 13.8574C81.1335 13.8574 81.6074 13.9486 82.0176 14.1309C82.4323 14.3132 82.7559 14.5889 82.9883 14.958C83.2253 15.3226 83.3438 15.7806 83.3438 16.332V19.7773C83.3438 20.0234 83.3643 20.2855 83.4053 20.5635C83.4508 20.8415 83.5169 21.0807 83.6035 21.2812V21.3906H82.2842C82.2204 21.2448 82.1702 21.0511 82.1338 20.8096C82.0973 20.5635 82.0791 20.3356 82.0791 20.126ZM82.2979 16.9062L82.3115 17.7949H81.0332C80.6732 17.7949 80.3519 17.8245 80.0693 17.8838C79.7868 17.9385 79.5498 18.0228 79.3584 18.1367C79.167 18.2507 79.0212 18.3942 78.9209 18.5674C78.8206 18.736 78.7705 18.9342 78.7705 19.1621C78.7705 19.3945 78.8229 19.6064 78.9277 19.7979C79.0326 19.9893 79.1898 20.1419 79.3994 20.2559C79.6136 20.3652 79.8757 20.4199 80.1855 20.4199C80.5729 20.4199 80.9147 20.3379 81.2109 20.1738C81.5072 20.0098 81.7419 19.8092 81.915 19.5723C82.0928 19.3353 82.1885 19.1051 82.2021 18.8818L82.7422 19.4902C82.7103 19.6816 82.6237 19.8936 82.4824 20.126C82.3411 20.3584 82.152 20.5817 81.915 20.7959C81.6826 21.0055 81.4046 21.181 81.0811 21.3223C80.762 21.459 80.402 21.5273 80.001 21.5273C79.4997 21.5273 79.0599 21.4294 78.6816 21.2334C78.3079 21.0374 78.0163 20.7754 77.8066 20.4473C77.6016 20.1146 77.499 19.7432 77.499 19.333C77.499 18.9365 77.5765 18.5879 77.7314 18.2871C77.8864 17.9818 78.1097 17.7288 78.4014 17.5283C78.693 17.3232 79.0439 17.1683 79.4541 17.0635C79.8643 16.9587 80.3223 16.9062 80.8281 16.9062H82.2979ZM88.5797 13.9941V14.9648H84.5807V13.9941H88.5797ZM85.9342 12.1963H87.1988V19.5586C87.1988 19.8092 87.2376 19.9984 87.315 20.126C87.3925 20.2536 87.4928 20.3379 87.6158 20.3789C87.7389 20.4199 87.871 20.4404 88.0123 20.4404C88.1171 20.4404 88.2265 20.4313 88.3404 20.4131C88.4589 20.3903 88.5478 20.3721 88.607 20.3584L88.6139 21.3906C88.5136 21.4225 88.3814 21.4521 88.2174 21.4795C88.0579 21.5114 87.8642 21.5273 87.6363 21.5273C87.3264 21.5273 87.0416 21.4658 86.7818 21.3428C86.5221 21.2197 86.3147 21.0146 86.1598 20.7275C86.0094 20.4359 85.9342 20.0439 85.9342 19.5518V12.1963ZM93.2824 21.5273C92.7674 21.5273 92.3003 21.4408 91.8811 21.2676C91.4663 21.0898 91.1086 20.8415 90.8078 20.5225C90.5116 20.2035 90.2837 19.8252 90.1242 19.3877C89.9647 18.9502 89.885 18.4717 89.885 17.9521V17.665C89.885 17.0635 89.9738 16.528 90.1516 16.0586C90.3293 15.5846 90.5708 15.1836 90.8762 14.8555C91.1815 14.5273 91.5279 14.279 91.9152 14.1104C92.3026 13.9417 92.7036 13.8574 93.1184 13.8574C93.647 13.8574 94.1027 13.9486 94.4855 14.1309C94.8729 14.3132 95.1896 14.5684 95.4357 14.8965C95.6818 15.2201 95.8641 15.6029 95.9826 16.0449C96.1011 16.4824 96.1604 16.9609 96.1604 17.4805V18.0479H90.6369V17.0156H94.8957V16.9199C94.8775 16.5918 94.8091 16.2728 94.6906 15.9629C94.5767 15.653 94.3944 15.3978 94.1437 15.1973C93.8931 14.9967 93.5513 14.8965 93.1184 14.8965C92.8312 14.8965 92.5669 14.958 92.3254 15.0811C92.0839 15.1995 91.8765 15.3773 91.7033 15.6143C91.5301 15.8512 91.3957 16.1406 91.3 16.4824C91.2043 16.8242 91.1564 17.2184 91.1564 17.665V17.9521C91.1564 18.3031 91.2043 18.6335 91.3 18.9434C91.4003 19.2487 91.5438 19.5176 91.7307 19.75C91.9221 19.9824 92.1522 20.1647 92.4211 20.2969C92.6945 20.429 93.0044 20.4951 93.3508 20.4951C93.7974 20.4951 94.1757 20.404 94.4855 20.2217C94.7954 20.0394 95.0666 19.7956 95.299 19.4902L96.0646 20.0986C95.9051 20.3402 95.7023 20.5703 95.4562 20.7891C95.2102 21.0078 94.9071 21.1855 94.5471 21.3223C94.1916 21.459 93.7701 21.5273 93.2824 21.5273Z" fill="white"/>
<rect x="8" y="6.39062" width="20" height="20" rx="2" fill="#FF9900"/>
</svg>
