<svg width="26" height="26" viewBox="0 0 26 26" fill="none" xmlns="http://www.w3.org/2000/svg">
<path d="M10.6973 23.8278V19.3164" stroke="#FAFAFA" stroke-width="1.5" stroke-linecap="round" stroke-linejoin="round"/>
<path d="M13.7324 19.3164V20.6249C13.7416 21.79 14.1426 22.9182 14.8709 23.8278C15.6 22.9186 16.0014 21.7902 16.0104 20.6249V19.3164" stroke="#FAFAFA" stroke-width="1.5" stroke-linecap="round" stroke-linejoin="round"/>
<path d="M5.38477 19.3164V22.8917C5.40753 23.1718 5.53983 23.4317 5.75296 23.6149C5.96609 23.7981 6.24286 23.8898 6.52323 23.8703H7.66068" stroke="#FAFAFA" stroke-width="1.5" stroke-linecap="round" stroke-linejoin="round"/>
<path d="M20.9849 23.8668H20.0154C19.766 23.8744 19.5238 23.7828 19.3418 23.6121C19.1599 23.4413 19.0531 23.2054 19.0449 22.956V20.2237C19.0531 19.9743 19.1599 19.7384 19.3418 19.5677C19.5238 19.3969 19.766 19.3053 20.0154 19.3129H20.9849" stroke="#FAFAFA" stroke-width="1.5" stroke-linecap="round" stroke-linejoin="round"/>
<path d="M19.0449 21.5977H21.3219" stroke="#FAFAFA" stroke-width="1.5" stroke-linecap="round" stroke-linejoin="round"/>
<path d="M7.712 12.2799C7.34389 11.3578 7.20754 10.3594 7.3149 9.37232C7.42225 8.38524 7.77005 7.43954 8.3278 6.61809C8.88555 5.79664 9.63624 5.12451 10.5141 4.66058C11.392 4.19665 12.3702 3.95508 13.3631 3.95704C14.356 3.959 15.3333 4.20443 16.2093 4.67183C17.0853 5.13922 17.8334 5.81432 18.3879 6.63796C18.9424 7.46161 19.2864 8.40868 19.3899 9.39618C19.4933 10.3837 19.353 11.3815 18.9813 12.3022" stroke="#FAFAFA" stroke-width="1.5" stroke-linecap="round" stroke-linejoin="round"/>
<path d="M6.18485 14.8156C5.26026 13.5025 4.71407 11.9607 4.60586 10.3584C4.49766 8.75616 4.83161 7.15494 5.57126 5.72948C6.31092 4.30403 7.42787 3.10911 8.80025 2.27509C10.1726 1.44107 11.7477 1 13.3536 1C14.9596 1 16.5346 1.44107 17.907 2.27509C19.2794 3.10911 20.3964 4.30403 21.136 5.72948C21.8757 7.15494 22.2096 8.75616 22.1014 10.3584C21.9932 11.9607 21.447 13.5025 20.5224 14.8156" stroke="#FAFAFA" stroke-width="1.5" stroke-linecap="round" stroke-linejoin="round"/>
<path d="M10.6973 9.64079C10.6973 9.98964 10.766 10.3351 10.8995 10.6574C11.033 10.9797 11.2286 11.2725 11.4753 11.5192C11.722 11.7658 12.0148 11.9615 12.3371 12.095C12.6594 12.2285 13.0048 12.2972 13.3537 12.2972C13.7025 12.2972 14.048 12.2285 14.3702 12.095C14.6925 11.9615 14.9854 11.7658 15.2321 11.5192C15.4787 11.2725 15.6744 10.9797 15.8079 10.6574C15.9414 10.3351 16.0101 9.98964 16.0101 9.64079C16.0101 9.29195 15.9414 8.94652 15.8079 8.62422C15.6744 8.30193 15.4787 8.00909 15.2321 7.76242C14.9854 7.51575 14.6925 7.32008 14.3702 7.18658C14.048 7.05309 13.7025 6.98438 13.3537 6.98438C13.0048 6.98438 12.6594 7.05309 12.3371 7.18658C12.0148 7.32008 11.722 7.51575 11.4753 7.76242C11.2286 8.00909 11.033 8.30193 10.8995 8.62422C10.766 8.94652 10.6973 9.29195 10.6973 9.64079Z" stroke="#FAFAFA" stroke-width="1.5" stroke-linecap="round" stroke-linejoin="round"/>
<path d="M17.6302 16.0992C17.3208 15.212 16.7431 14.4431 15.9771 13.8989C15.2111 13.3548 14.2947 13.0625 13.3551 13.0625C12.4155 13.0625 11.4992 13.3548 10.7332 13.8989C9.96721 14.4431 9.38946 15.212 9.08008 16.0992H17.6302Z" stroke="#FAFAFA" stroke-width="1.5" stroke-linecap="round" stroke-linejoin="round"/>
</svg>
